#!OML:ASF F:\VICON\USERDATA\INSTALL\rory3\rory3.ASF
:FULLY-SPECIFIED
:DEGREES
157
root -0.13174 17.8625 11.2873 0.523353 -5.50837 -8.33058
lowerback 8.63307 2.36047 7.69407
upperback -0.386268 4.03042 1.9732
thorax -4.87006 1.81672 -2.74511
lowerneck -17.5724 -2.86295 -1.14156
upperneck 20.4712 -3.75867 0.413957
head 9.38768 -1.79323 -0.16154
rclavicle 1.68222e-014 3.55825e-014
rhumerus -19.8795 -8.99559 -82.7297
rradius 31.9839
rwrist -2.0078
rhand -19.5669 23.4615
rfingers 7.12502
rthumb 6.7579 -6.41063
lclavicle 1.68222e-014 3.55825e-014
lhumerus -39.1459 15.0379 77.1837
lradius 18.1714
lwrist 0.765901
lhand -27.6758 22.4431
lfingers 7.12502
lthumb -1.07275 52.4202
rfemur 9.43445 4.32762 34.9164
rtibia 21.468
rfoot -18.6354 -1.07941
rtoes 3.03065
lfemur -25.8211 -6.43839 -8.65019
ltibia 12.2861
lfoot -7.52498 10.4001
ltoes -3.05965
158
root -0.118184 17.8442 11.4829 0.46487 -5.67787 -8.02325
lowerback 8.72548 2.41504 7.4559
upperback -0.405466 4.08305 1.85734
thorax -4.94404 1.84411 -2.74609
lowerneck -17.5617 -2.90879 -1.19678
upperneck 20.4846 -3.8213 0.472308
head 9.39336 -1.82008 -0.140623
rclavicle -3.42282e-015 -3.45885e-014
rhumerus -19.8695 -8.98984 -82.7356
rradius 32.103
rwrist -1.85114
rhand -19.9585 23.5539
rfingers 7.12502
rthumb 6.37985 -6.32999
lclavicle -3.42282e-015 -3.45885e-014
lhumerus -39.3428 15.2875 76.9024
lradius 17.7717
lwrist 0.551119
lhand -28.9656 17.3909
lfingers 7.12502
lthumb -2.31845 47.3581
rfemur 9.89777 4.69739 34.5757
rtibia 22.0505
rfoot -18.8334 -1.2217
rtoes 1.44575
lfemur -25.8859 -5.68543 -9.44277
ltibia 12.9209
lfoot -6.79856 9.38808
ltoes -2.16234
159
root -0.101247 17.827 11.6879 0.38216 -5.66616 -7.66289
lowerback 8.67843 2.41852 7.20068
upperback -0.352411 4.04748 1.73507
thorax -4.87235 1.83586 -2.72423
lowerneck -17.7009 -2.96059 -1.15037
upperneck 20.4806 -3.89069 0.413623
head 9.41572 -1.85473 -0.17982
rclavicle 1.46169e-014 1.33186e-014
rhumerus -19.6891 -9.0854 -82.7113
rradius 31.9745
rwrist -1.5373
rhand -20.119 24.1063
rfingers 7.12502
rthumb 6.22489 -5.78223
lclavicle 1.46169e-014 1.33186e-014
lhumerus -39.4192 15.1269 76.9024
lradius 17.5865
lwrist 0.693596
lhand -27.0593 23.129
lfingers 7.12502
lthumb -0.477335 53.1082
rfemur 10.2474 4.90097 34.1526
rtibia 22.7651
rfoot -18.388 -1.14516
rtoes 3.14785
lfemur -26.0536 -5.00054 -10.4075
ltibia 14.0779
lfoot -6.37017 8.36507
ltoes -0.529021
160
root -0.0837766 17.8021 11.8947 0.311223 -5.44365 -7.47682
lowerback 8.48556 2.34007 7.09533
upperback -0.256237 3.90782 1.71299
thorax -4.68057 1.77895 -2.65986
lowerneck -17.8261 -2.90821 -1.19029
upperneck 20.5019 -3.80631 0.418279
head 9.44648 -1.81721 -0.162642
rclavicle 1.33807e-014 -1.35174e-014
rhumerus -19.5063 -8.93283 -82.6792
rradius 32.2324
rwrist -1.86216
rhand -19.7739 23.7118
rfingers 7.12502
rthumb 6.5581 -6.16664
lclavicle 1.33807e-014 -1.35174e-014
lhumerus -39.5035 15.1471 76.9336
lradius 17.4904
lwrist 1.03681
lhand -25.6739 24.584
lfingers 7.12502
lthumb 0.860678 54.562
rfemur 10.5667 4.80369 33.8869
rtibia 23.5849
rfoot -18.2951 -1.01539
rtoes 1.82703
lfemur -26.32 -4.603 -11.1496
ltibia 15.5805
lfoot -7.59774 7.88901
ltoes 4.24593
161
root -0.0689677 17.7726 12.0963 0.124775 -5.35398 -7.60808
lowerback 8.48388 2.24197 7.19894
upperback -0.148188 3.78544 1.80884
thorax -4.57771 1.72317 -2.6008
lowerneck -17.6866 -2.81079 -1.21441
upperneck 20.4529 -3.67841 0.473905
head 9.40442 -1.75426 -0.119913
rclavicle -1.07934e-014 -1.43622e-014
rhumerus -19.4329 -8.7304 -82.7085
rradius 32.9217
rwrist -2.49805
rhand -19.424 22.57
rfingers 7.12502
rthumb 6.89588 -7.29764
lclavicle -1.07934e-014 -1.43622e-014
lhumerus -39.5138 15.417 76.8659
lradius 16.9581
lwrist 1.10391
lhand -27.1249 22.1644
lfingers 7.12502
lthumb -0.540763 52.1435
rfemur 10.9923 4.8716 34.0429
rtibia 24.4975
rfoot -18.1544 -0.814299
rtoes -0.646344
lfemur -26.4207 -4.30391 -11.4368
ltibia 17.196
lfoot -7.59757 7.66644
ltoes 1.67364
162
root -0.0534735 17.7538 12.3033 -0.0674762 -5.40682 -7.65691
lowerback 8.64179 2.25835 7.32857
upperback -0.150261 3.83349 1.77787
thorax -4.6541 1.74035 -2.71845
lowerneck -17.3482 -2.85909 -1.14848
upperneck 20.214 -3.76814 0.48887
head 9.25884 -1.79244 -0.130062
rclavicle 1.87479e-014 3.01159e-014
rhumerus -19.5285 -8.91028 -82.6825
rradius 32.8979
rwrist -2.22518
rhand -19.5231 22.7909
rfingers 7.12502
rthumb 6.80023 -7.07991
lclavicle 1.87479e-014 3.01159e-014
lhumerus -39.6444 15.2133 76.8546
lradius 16.681
lwrist 0.634563
lhand -27.8906 20.1756
lfingers 7.12502
lthumb -1.28025 50.1515
rfemur 11.3422 4.91064 34.0364
rtibia 25.4474
rfoot -17.6115 -0.394572
rtoes -1.73303
lfemur -26.4644 -4.27504 -11.6762
ltibia 18.8342
lfoot -9.25615 7.54995
ltoes 5.37661
163
root -0.0329455 17.748 12.5208 -0.232871 -5.44275 -7.26614
lowerback 8.78247 2.33266 7.10548
upperback -0.208938 3.91861 1.62081
thorax -4.78973 1.77958 -2.77758
lowerneck -17.1622 -2.99073 -1.21961
upperneck 20.0863 -3.93876 0.519056
head 9.1842 -1.87596 -0.126052
rclavicle 1.07468e-015 -6.26172e-015
rhumerus -19.915 -9.06097 -82.5399
rradius 33.1463
rwrist -2.19526
rhand -19.5318 22.9034
rfingers 7.12502
rthumb 6.79177 -6.96767
lclavicle 1.07468e-015 -6.26172e-015
lhumerus -39.9186 15.0275 76.7388
lradius 16.5973
lwrist -0.0815452
lhand -28.1884 17.6353
lfingers 7.12502
lthumb -1.5679 47.6092
rfemur 11.6051 4.86898 33.4657
rtibia 26.4759
rfoot -16.7861 0.215313
rtoes -1.30662
lfemur -26.5108 -4.15781 -12.4307
ltibia 20.414
lfoot -7.43136 6.19431
ltoes 1.67779
164
root -0.00960719 17.7477 12.7489 -0.433761 -5.57715 -6.99395
lowerback 8.85096 2.39078 6.89443
upperback -0.27802 3.98272 1.58489
thorax -4.90598 1.81028 -2.71142
lowerneck -16.9586 -3.06129 -1.24715
upperneck 20.1632 -4.02461 0.481152
head 9.17415 -1.92328 -0.142967
rclavicle 2.53078e-014 -3.97569e-016
rhumerus -20.5303 -9.16498 -82.3589
rradius 33.6029
rwrist -2.1244
rhand -19.4154 22.9935
rfingers 7.12502
rthumb 6.90421 -6.87393
lclavicle 2.53078e-014 -3.97569e-016
lhumerus -40.2553 15.5199 76.2602
lradius 16.2429
lwrist -1.44063
lhand -28.097 18.9331
lfingers 7.12502
lthumb -1.47962 48.9077
rfemur 11.8929 4.82695 32.9546
rtibia 27.6613
rfoot -15.928 0.93818
rtoes -0.27544
lfemur -26.4747 -3.95681 -13
ltibia 21.8381
lfoot -5.77723 3.99218
ltoes 1.11323
165
root 0.00997146 17.7495 12.9783 -0.601816 -5.69455 -6.97254
lowerback 8.80332 2.38785 6.84281
upperback -0.314024 3.97618 1.67581
thorax -4.92771 1.80797 -2.58583
lowerneck -16.8798 -3.05429 -1.27935
upperneck 20.4358 -3.99302 0.400377
head 9.25295 -1.91919 -0.162643
rclavicle 2.30047e-014 3.47873e-016
rhumerus -20.9122 -9.19945 -82.2039
rradius 33.932
rwrist -2.31207
rhand -19.1763 22.4198
rfingers 7.12502
rthumb 7.13493 -7.43997
lclavicle 2.30047e-014 3.47873e-016
lhumerus -40.5342 15.8804 76.0411
lradius 16.2836
lwrist -2.62128
lhand -26.5325 22.5781
lfingers 7.12502
lthumb 0.0314171 52.5578
rfemur 12 4.84002 32.7754
rtibia 29.035
rfoot -14.9851 1.41453
rtoes -1.7407
lfemur -26.4396 -3.85757 -13.1777
ltibia 23.0602
lfoot -4.77552 1.78422
ltoes 1.62296
166
root 0.0235112 17.7571 13.1971 -0.766896 -5.68915 -6.57816
lowerback 8.73835 2.43069 6.45394
upperback -0.325892 3.98249 1.55943
thorax -4.9195 1.82007 -2.48925
lowerneck -16.8064 -3.04237 -1.20878
upperneck 20.6883 -4.00593 0.42231
head 9.32631 -1.91622 -0.169699
rclavicle -2.54242e-014 -1.25731e-014
rhumerus -21.2652 -9.5297 -82.1653
rradius 34.4008
rwrist -2.84736
rhand -19.1409 21.4818
rfingers 7.12502
rthumb 7.16914 -8.37673
lclavicle -2.54242e-014 -1.25731e-014
lhumerus -40.6286 15.5933 76.0611
lradius 16.3698
lwrist -3.19228
lhand -26.5367 22.9173
lfingers 7.12502
lthumb 0.0273632 52.897
rfemur 11.8583 4.98555 32.2968
rtibia 30.6067
rfoot -13.5813 1.81824
rtoes -2.77814
lfemur -26.3547 -3.79727 -13.7911
ltibia 24.0945
lfoot -4.7171 0.137858
ltoes -0.474831
